<svg version="1.1" id="el_F4D7BPj7y" xmlns="http://www.w3.org/2000/svg" xmlns:xlink="http://www.w3.org/1999/xlink" x="0px" y="0px" viewBox="0 0 100 100" style="enable-background:new 0 0 100 100;" xml:space="preserve"><style>@-webkit-keyframes kf_el_Wg-chKTQhM_an_inn4sPYp2{0%{-webkit-transform: translate(51.55000114440918px, 48.64999866485596px) rotate(0deg) translate(-51.55000114440918px, -48.64999866485596px);transform: translate(51.55000114440918px, 48.64999866485596px) rotate(0deg) translate(-51.55000114440918px, -48.64999866485596px);}100%{-webkit-transform: translate(51.55000114440918px, 48.64999866485596px) rotate(360deg) translate(-51.55000114440918px, -48.64999866485596px);transform: translate(51.55000114440918px, 48.64999866485596px) rotate(360deg) translate(-51.55000114440918px, -48.64999866485596px);}}@keyframes kf_el_Wg-chKTQhM_an_inn4sPYp2{0%{-webkit-transform: translate(51.55000114440918px, 48.64999866485596px) rotate(0deg) translate(-51.55000114440918px, -48.64999866485596px);transform: translate(51.55000114440918px, 48.64999866485596px) rotate(0deg) translate(-51.55000114440918px, -48.64999866485596px);}100%{-webkit-transform: translate(51.55000114440918px, 48.64999866485596px) rotate(360deg) translate(-51.55000114440918px, -48.64999866485596px);transform: translate(51.55000114440918px, 48.64999866485596px) rotate(360deg) translate(-51.55000114440918px, -48.64999866485596px);}}#el_F4D7BPj7y *{-webkit-animation-duration: 2s;animation-duration: 2s;-webkit-animation-iteration-count: infinite;animation-iteration-count: infinite;-webkit-animation-timing-function: cubic-bezier(0, 0, 1, 1);animation-timing-function: cubic-bezier(0, 0, 1, 1);}#el_Wg-chKTQhM{fill: #9B9B9B;}#el_orRDQ3JgTS{fill: url(#SVGID_1_);}#el_bO9q9rgoPw{fill: url(#SVGID_2_);}#el_tINGoUsTOs{fill: url(#SVGID_3_);}#el_uIURNe4hiN{fill: url(#SVGID_4_);}#el_CznIAjyiGe{fill: url(#SVGID_5_);}#el_Wg-chKTQhM_an_inn4sPYp2{-webkit-animation-fill-mode: backwards;animation-fill-mode: backwards;-webkit-transform: translate(51.55000114440918px, 48.64999866485596px) rotate(0deg) translate(-51.55000114440918px, -48.64999866485596px);transform: translate(51.55000114440918px, 48.64999866485596px) rotate(0deg) translate(-51.55000114440918px, -48.64999866485596px);-webkit-animation-name: kf_el_Wg-chKTQhM_an_inn4sPYp2;animation-name: kf_el_Wg-chKTQhM_an_inn4sPYp2;-webkit-animation-timing-function: cubic-bezier(0, 0, 1, 1);animation-timing-function: cubic-bezier(0, 0, 1, 1);}</style>

<title>both in one</title>
<desc>Created with Sketch.</desc>
<g id="el_8Drj76_Gf3">
	<g id="el_cBp82WTOvd">
		<g id="el_Wg-chKTQhM_an_inn4sPYp2" data-animator-group="true" data-animator-type="1"><path id="el_Wg-chKTQhM" d="M21.7,28.9c0.8-1.6,9.8-16,29.7-16.1c20.9-0.1,30.1,16.4,30.4,17.1&#10;&#9;&#9;&#9;c1.4,3.2,0.8,7.2-2.1,8.7c-3.3,1.7-6.8,0.7-8.7-2c-3.8-5.4-4.3-12.2-14.2-16.2C35.5,11.6,20.9,30.5,21.7,28.9L21.7,28.9z&#10;&#9;&#9;&#9; M81.4,68.4c-0.8,1.5-9.8,16-29.7,16.1c-20.9,0.1-30.1-16.4-30.4-17.1c-1.4-3.2-0.8-7.2,2.1-8.7c3.3-1.7,6.8-0.7,8.7,2&#10;&#9;&#9;&#9;c3.8,5.4,4.3,12.2,14.2,16.3C67.7,85.7,82.3,66.8,81.4,68.4L81.4,68.4z"/></g>
	</g>
</g>
<g id="el_kR1P4g392q">
	<linearGradient id="SVGID_1_" gradientUnits="userSpaceOnUse" x1="51.1309" y1="41.015" x2="75.6767" y2="56.008">
		<stop offset="0" style="stop-color:#006DB7"/>
		<stop offset="1" style="stop-color:#0E133C"/>
	</linearGradient>
	<path d="M69.6,45.7c0,0-0.8-9.3-11.1-14.1l-6.8,10.5c0.7,0,1.4,0.1,2,0.3v0c0,0,7.3,1.5,10.2,7.1&#10;&#9;&#9;c0.1,0.3,0.2,0.5,0.3,0.7c1.5,3,1.7,7-1,12.2C63.1,62.4,71,56.8,69.6,45.7z" id="el_orRDQ3JgTS"/>
	<linearGradient id="SVGID_2_" gradientUnits="userSpaceOnUse" x1="28.5501" y1="60.3031" x2="48.9846" y2="45.9723">
		<stop offset="0" style="stop-color:#006DB7"/>
		<stop offset="1" style="stop-color:#0E133C"/>
	</linearGradient>
	<path d="M48.2,55L48.2,55c-6.2-3-17.7-10.5-8.7-20.2c-3.7,3.3-6.1,8.2-6.1,13.6c0,8.1,5.4,15,12.7,17.3l5.5-9.9&#10;&#9;&#9;C50.4,55.9,49.2,55.6,48.2,55z" id="el_bO9q9rgoPw"/>
	<linearGradient id="SVGID_3_" gradientUnits="userSpaceOnUse" x1="36.2114" y1="43.3205" x2="51.5959" y2="43.3205">
		<stop offset="0" style="stop-color:#006DB7"/>
		<stop offset="1" style="stop-color:#0E133C"/>
	</linearGradient>
	<path d="M51.6,42.1L51.6,42.1l-6.8-10.6c-1.9,0.8-3.7,1.9-5.3,3.3C30.6,44.5,42,52,48.2,55.1l0-0.1&#10;&#9;&#9;c-2.1-1.2-3.5-3.4-3.5-6C44.7,45.2,47.8,42.1,51.6,42.1z" id="el_tINGoUsTOs"/>
	<g id="el_-IltfAouvT">
		<linearGradient id="SVGID_4_" gradientUnits="userSpaceOnUse" x1="49.5981" y1="57.8343" x2="65.7428" y2="48.3064">
			<stop offset="0" style="stop-color:#006DB7"/>
			<stop offset="1" style="stop-color:#0E133C"/>
		</linearGradient>
		<path d="M64.7,51.7c-0.1-0.5-0.3-1-0.5-1.4c0,0,0,0,0,0c-0.1-0.2-0.1-0.3-0.2-0.4c-0.1-0.2-0.2-0.3-0.3-0.5&#10;&#9;&#9;&#9;c-0.7-1.4-1.8-2.6-2.9-3.5l0,0c0,0,0,0-0.1,0c-0.1-0.1-0.2-0.1-0.3-0.2c-2.7-2.1-5.6-2.9-6.4-3.1c0,0,0.1,0,0.1,0&#10;&#9;&#9;&#9;c-0.2-0.1-0.3-0.1-0.3-0.1c0.5,0.2,0.9,0.3,1.2,0.6l0,0c0,0,0.1,0,0.1,0.1c0,0,0,0,0,0c0,0,0.1,0,0.1,0.1c0.1,0.1,0.2,0.1,0.3,0.2&#10;&#9;&#9;&#9;l0,0c0.2,0.2,0.6,0.4,0.9,0.8c0.3,0.3,0.6,0.7,1,1.2c0,0,0,0,0,0c0,0,0,0,0,0c0.7,1.2,1.3,2.8,1,4.9c0,0-0.5,5.2-6.8,5.6l5.5,9.9&#10;&#9;&#9;&#9;c0,0,3.2-0.8,6.1-3.3c0,0,0.3-0.5,0.7-1.4c0.4-1,0.7-1.9,1-2.8l0,0C64.8,58.1,65.8,55.3,64.7,51.7z" id="el_uIURNe4hiN"/>
		<linearGradient id="SVGID_5_" gradientUnits="userSpaceOnUse" x1="53.8369" y1="42.5608" x2="54.0567" y2="42.431">
			<stop offset="0" style="stop-color:#006DB7"/>
			<stop offset="1" style="stop-color:#0E133C"/>
		</linearGradient>
		<path d="M53.8,42.5c0,0,0.1,0,0.3,0.1C54,42.5,53.9,42.5,53.8,42.5z" id="el_CznIAjyiGe"/>
	</g>
</g>
</svg>